#!OML:ASF H:\Swim 2\Project 1\Capture day 1\Session 1\male.ASF
:FULLY-SPECIFIED
:DEGREES
1544
root 7.45536 9.82671 11.4062 90.4331 0.488814 4.43297
lowerback 2.63978 6.22169 -0.910109
upperback -3.92627 8.51368 2.02806
thorax -5.99822 4.3486 1.91214
lowerneck -17.5896 -0.74042 8.60622
upperneck 23.0699 -2.52114 -3.6693
head 10.1095 -0.8063 -3.07775
rclavicle 1.59028e-014 2.38542e-015
rhumerus 55.8741 -27.932 1.91704
rradius 26.9926
rwrist 8.04876
rhand -36.301 -0.437063
rfingers 7.12502
rthumb -9.40021 -30.2074
lclavicle 1.59028e-014 2.38542e-015
lhumerus -32.8884 10.2835 18.8887
lradius 9.21188
lwrist -55.604
lhand -39.087 -18.3254
lfingers 7.12502
lthumb -12.0875 11.3054
rfemur -34.0009 8.41007 19.1914
rtibia 29.36
rfoot 38.1993 5.81603
rtoes 18.1026
lfemur -30.7279 -7.59931 -23.3511
ltibia 38.2831
lfoot 9.43227 13.9701
ltoes 31.2838
1545
root 7.45446 9.83262 11.4173 90.3377 0.419446 4.66933
lowerback 2.7815 6.18421 -0.934262
upperback -3.98065 8.47152 2.14229
thorax -6.15656 4.33155 2.02526
lowerneck -17.4661 -0.852666 8.36166
upperneck 23.0123 -2.62602 -3.54001
head 10.0632 -0.861024 -3.00077
rclavicle 6.36111e-014 1.07344e-014
rhumerus 54.7883 -27.795 2.64998
rradius 26.9792
rwrist 7.83156
rhand -36.3293 -0.478984
rfingers 7.12502
rthumb -9.42759 -30.2481
lclavicle 6.36111e-014 1.07344e-014
lhumerus -31.6161 15.3912 15.2992
lradius 9.64875
lwrist -59.0725
lhand -39.0071 -17.068
lfingers 7.12502
lthumb -12.0105 12.5673
rfemur -34.3237 8.66507 18.8859
rtibia 28.7266
rfoot 38.2552 5.52843
rtoes 18.7701
lfemur -30.235 -7.06262 -23.6792
ltibia 39.1672
lfoot 9.70887 13.7227
ltoes 30.5554
1546
root 7.45342 9.83858 11.4286 90.2278 0.367315 4.92526
lowerback 2.92843 6.14005 -0.942274
upperback -4.02359 8.42057 2.25608
thorax -6.30282 4.30921 2.13087
lowerneck -17.3427 -0.950742 8.11626
upperneck 22.94 -2.70449 -3.43948
head 10.0132 -0.907716 -2.93017
rclavicle -1.08139e-013 -3.97569e-015
rhumerus 53.6708 -27.651 3.39061
rradius 26.9621
rwrist 7.50924
rhand -36.3275 -0.594825
rfingers 7.12502
rthumb -9.42581 -30.3641
lclavicle -1.08139e-013 -3.97569e-015
lhumerus -30.5011 20.6917 11.9124
lradius 10.0023
lwrist -62.4437
lhand -39.063 -16.0227
lfingers 7.12502
lthumb -12.0644 13.6095
rfemur -34.5624 8.84596 18.6211
rtibia 28.1541
rfoot 38.2935 5.23521
rtoes 19.3389
lfemur -29.8027 -6.51921 -23.9635
ltibia 40.0668
lfoot 10.0513 13.4424
ltoes 30.0943
1547
root 7.45216 9.84424 11.44 90.103 0.334432 5.19476
lowerback 3.08233 6.08903 -0.929907
upperback -4.0552 8.3609 2.36988
thorax -6.43751 4.28137 2.22698
lowerneck -17.2234 -1.02955 7.86245
upperneck 22.8476 -2.74586 -3.37589
head 9.95875 -0.943245 -2.86618
rclavicle 0 5.56597e-015
rhumerus 52.5381 -27.4997 4.11529
rradius 26.936
rwrist 7.14776
rhand -36.3053 -0.768089
rfingers 7.12502
rthumb -9.40442 -30.5383
lclavicle 0 5.56597e-015
lhumerus -28.4292 21.5681 11.4926
lradius 10.2887
lwrist -60.4885
lhand -39.2071 -14.305
lfingers 7.12502
lthumb -12.2034 15.319
rfemur -34.7079 8.95089 18.4092
rtibia 27.6551
rfoot 38.2799 4.95238
rtoes 19.766
lfemur -29.4378 -5.97865 -24.1982
ltibia 40.9455
lfoot 10.4971 13.0617
ltoes 29.9816
1548
root 7.45057 9.84929 11.4513 89.977 0.313535 5.47165
lowerback 3.23213 6.02709 -0.902853
upperback -4.08 8.28679 2.48017
thorax -6.55898 4.24551 2.3146
lowerneck -17.1084 -1.10216 7.56379
upperneck 22.7548 -2.77581 -3.27874
head 9.90733 -0.973455 -2.78159
rclavicle -1.24042e-013 -1.74931e-014
rhumerus 51.4224 -27.3417 4.78725
rradius 26.8914
rwrist 6.81112
rhand -36.2873 -0.976338
rfingers 7.12502
rthumb -9.38707 -30.7473
lclavicle -1.24042e-013 -1.74931e-014
lhumerus -26.1767 21.8114 11.4495
lradius 10.5551
lwrist -57.6183
lhand -39.3958 -12.7084
lfingers 7.12502
lthumb -12.3853 16.9047
rfemur -34.7725 8.98037 18.249
rtibia 27.2431
rfoot 38.1842 4.68329
rtoes 20.0177
lfemur -29.1524 -5.44976 -24.3872
ltibia 41.7527
lfoot 11.0377 12.5462
ltoes 30.2126
1549
root 7.44854 9.85355 11.4621 89.8625 0.300178 5.74752
lowerback 3.36574 5.95793 -0.871732
upperback -4.10442 8.20313 2.58704
thorax -6.66899 4.20479 2.39999
lowerneck -16.9966 -1.17177 7.21806
upperneck 22.6675 -2.79803 -3.14841
head 9.86062 -1.00004 -2.67686
rclavicle 1.59028e-014 -1.39149e-014
rhumerus 50.3451 -27.1847 5.37064
rradius 26.8301
rwrist 6.53227
rhand -36.2661 -1.1984
rfingers 7.12502
rthumb -9.36654 -30.9703
lclavicle 1.59028e-014 -1.39149e-014
lhumerus -23.8089 21.5239 11.6444
lradius 10.8392
lwrist -53.9697
lhand -39.5922 -11.3141
lfingers 7.12502
lthumb -12.5747 18.2875
rfemur -34.7705 8.93675 18.1418
rtibia 26.93
rfoot 37.9932 4.44484
rtoes 20.1011
lfemur -28.9539 -4.9385 -24.5323
ltibia 42.4338
lfoot 11.6426 11.8867
ltoes 30.733
1550
root 7.44615 9.85675 11.4721 89.7701 0.287379 6.01749
lowerback 3.47284 5.88519 -0.846656
upperback -4.13484 8.11441 2.68728
thorax -6.76962 4.16209 2.48551
lowerneck -16.8981 -1.24069 6.83892
upperneck 22.6096 -2.8169 -2.99889
head 9.82814 -1.0248 -2.56051
rclavicle 2.22639e-014 -1.78906e-014
rhumerus 49.3167 -27.0328 5.82832
rradius 26.7554
rwrist 6.34757
rhand -36.2667 -1.44163
rfingers 7.12502
rthumb -9.36713 -31.2135
lclavicle 2.22639e-014 -1.78906e-014
lhumerus -21.3746 20.7577 11.9709
lradius 11.171
lwrist -49.621
lhand -39.744 -10.145
lfingers 7.12502
lthumb -12.721 19.4476
rfemur -34.7187 8.82102 18.0833
rtibia 26.7314
rfoot 37.7173 4.25742
rtoes 20.0582
lfemur -28.8447 -4.45849 -24.6406
ltibia 42.9398
lfoot 12.2089 11.1772
ltoes 31.2043
1551
root 7.44346 9.85869 11.4808 89.7084 0.275204 6.27316
lowerback 3.54369 5.81389 -0.831385
upperback -4.17549 8.0274 2.78056
thorax -6.86067 4.12114 2.5728
lowerneck -16.8213 -1.30578 6.44853
upperneck 22.5922 -2.82686 -2.86232
head 9.8147 -1.0468 -2.44714
rclavicle 1.90833e-014 -2.38542e-015
rhumerus 48.3376 -26.8904 6.14772
rradius 26.6785
rwrist 6.23896
rhand -36.2849 -1.69322
rfingers 7.12502
rthumb -9.38469 -31.4643
lclavicle 1.90833e-014 -2.38542e-015
lhumerus -18.9204 19.6095 12.3219
lradius 11.5778
lwrist -44.6802
lhand -39.7957 -9.23018
lfingers 7.12502
lthumb -12.7708 20.3592
rfemur -34.6323 8.64417 18.0724
rtibia 26.6584
rfoot 37.399 4.12693
rtoes 19.9318
lfemur -28.8272 -4.02048 -24.713
ltibia 43.2387
lfoot 12.6831 10.4742
ltoes 31.5952
1552
root 7.44063 9.85921 11.4881 89.6872 0.260743 6.50995
lowerback 3.56669 5.74715 -0.832031
upperback -4.23064 7.94604 2.86617
thorax -6.94101 4.08436 2.66485
lowerneck -16.7689 -1.36447 6.06682
upperneck 22.6168 -2.82255 -2.76757
head 9.82049 -1.06533 -2.34946
rclavicle 5.40694e-014 8.74653e-015
rhumerus 47.3998 -26.7506 6.33592
rradius 26.6151
rwrist 6.15727
rhand -36.3101 -1.94983
rfingers 7.12502
rthumb -9.409 -31.7198
lclavicle 5.40694e-014 8.74653e-015
lhumerus -16.4828 18.1644 12.6157
lradius 12.0637
lwrist -39.2792
lhand -39.7461 -8.55908
lfingers 7.12502
lthumb -12.723 21.0333
rfemur -34.5277 8.42472 18.0988
rtibia 26.7181
rfoot 37.1219 4.05537
rtoes 19.8785
lfemur -28.9069 -3.6374 -24.7534
ltibia 43.3153
lfoot 13.0299 9.88003
ltoes 32.0057
1553
root 7.43788 9.85868 11.4938 89.745 0.244091 6.73101
lowerback 3.50247 5.68664 -0.852391
upperback -4.31023 7.87275 2.94298
thorax -6.99911 4.0537 2.76568
lowerneck -16.7343 -1.42388 5.69396
upperneck 22.6709 -2.81472 -2.70718
head 9.83945 -1.0848 -2.26572
rclavicle 9.85972e-014 1.43125e-014
rhumerus 46.4878 -26.6107 6.41309
rradius 26.5846
rwrist 6.03909
rhand -36.336 -2.21992
rfingers 7.12502
rthumb -9.434 -31.9888
lclavicle 9.85972e-014 1.43125e-014
lhumerus -14.0846 16.5421 12.7932
lradius 12.6293
lwrist -33.5878
lhand -39.615 -8.1125
lfingers 7.12502
lthumb -12.5966 21.4877
rfemur -34.4551 8.17782 18.1443
rtibia 26.9119
rfoot 36.9275 4.0492
rtoes 19.8993
lfemur -29.1291 -3.33565 -24.7641
ltibia 43.1736
lfoot 13.2312 9.50019
ltoes 32.427
1554
root 7.43532 9.857 11.4984 89.8626 0.218303 6.92474
lowerback 3.36817 5.63515 -0.896314
upperback -4.40499 7.81048 3.01065
thorax -7.03556 4.03045 2.87516
lowerneck -16.7131 -1.48164 5.34459
upperneck 22.7337 -2.79987 -2.69582
head 9.86305 -1.10467 -2.20253
rclavicle 5.08889e-014 2.50469e-014
rhumerus 45.6152 -26.484 6.36354
rradius 26.5969
rwrist 5.84524
rhand -36.3472 -2.50534
rfingers 7.12502
rthumb -9.4448 -32.2737
lclavicle 5.08889e-014 2.50469e-014
lhumerus -11.7448 14.8007 12.8155
lradius 13.2699
lwrist -27.7108
lhand -39.4441 -7.8139
lfingers 7.12502
lthumb -12.4318 21.7964
rfemur -34.3966 7.93686 18.1951
rtibia 27.2367
rfoot 36.8267 4.10179
rtoes 19.9992
lfemur -29.4696 -3.11938 -24.7537
ltibia 42.8302
lfoot 13.2714 9.45133
ltoes 32.89
1555
root 7.43314 9.85417 11.5019 90.014 0.180223 7.08365
lowerback 3.19066 5.59364 -0.959412
upperback -4.50338 7.76025 3.06997
thorax -7.05308 4.01446 2.98937
lowerneck -16.6943 -1.53537 5.03015
upperneck 22.7701 -2.77217 -2.75263
head 9.8764 -1.12434 -2.16685
rclavicle 6.36111e-015 1.59028e-014
rhumerus 44.796 -26.3861 6.17536
rradius 26.6632
rwrist 5.54133
rhand -36.3289 -2.81307
rfingers 7.12502
rthumb -9.42719 -32.5822
lclavicle 6.36111e-015 1.59028e-014
lhumerus -9.48438 13.0168 12.6573
lradius 13.9834
lwrist -21.7948
lhand -39.2895 -7.61846
lfingers 7.12502
lthumb -12.2828 22.0008
rfemur -34.3235 7.72573 18.2426
rtibia 27.6799
rfoot 36.8261 4.21345
rtoes 20.1891
lfemur -29.8972 -3.00054 -24.7229
ltibia 42.3116
lfoot 13.1582 9.82503
ltoes 33.3984
1556
root 7.43117 9.85085 11.505 90.1745 0.119808 7.20537
lowerback 3.00267 5.55875 -1.04685
upperback -4.59493 7.71663 3.12012
thorax -7.05953 4.00276 3.10798
lowerneck -16.6749 -1.57781 4.7481
upperneck 22.7574 -2.72082 -2.87808
head 9.87135 -1.13958 -2.15653
rclavicle -5.40694e-014 -1.70955e-014
rhumerus 44.0623 -26.3388 5.80974
rradius 26.7881
rwrist 5.14825
rhand -36.2816 -3.15467
rfingers 7.12502
rthumb -9.38152 -32.9259
lclavicle -5.40694e-014 -1.70955e-014
lhumerus -7.32221 11.23 12.3029
lradius 14.768
lwrist -15.9291
lhand -39.1871 -7.44442
lfingers 7.12502
lthumb -12.1841 22.1807
rfemur -34.2076 7.55959 18.2743
rtibia 28.2231
rfoot 36.8947 4.38225
rtoes 20.3804
lfemur -30.3869 -2.98752 -24.6765
ltibia 41.648
lfoot 12.9293 10.6253
ltoes 33.9932
1557
root 7.42955 9.84731 11.5083 90.3199 0.0357083 7.28311
lowerback 2.82871 5.53463 -1.15709
upperback -4.67214 7.68514 3.16188
thorax -7.06136 3.99769 3.2283
lowerneck -16.6521 -1.61571 4.49284
upperneck 22.6994 -2.65992 -3.04718
head 9.84884 -1.15407 -2.16372
rclavicle -1.90833e-014 -1.51076e-014
rhumerus 43.4093 -26.3437 5.28435
rradius 26.9871
rwrist 4.62704
rhand -36.1706 -3.53905
rfingers 7.12502
rthumb -9.27441 -33.3151
lclavicle -1.90833e-014 -1.51076e-014
lhumerus -5.25857 9.44165 11.761
lradius 15.6291
lwrist -10.1507
lhand -39.1691 -7.25648
lfingers 7.12502
lthumb -12.1668 22.3697
rfemur -34.0179 7.44474 18.2902
rtibia 28.8413
rfoot 37.0043 4.6073
rtoes 20.4985
lfemur -30.9101 -3.08704 -24.6067
ltibia 40.8719
lfoot 12.6196 11.82
ltoes 34.6792
